<svg width="none" height="none" viewBox="0 0 24 24" fill="none" xmlns="http://www.w3.org/2000/svg">
<path d="M12 21C16.9706 21 21 16.9706 21 12C21 7.02944 16.9706 3 12 3C7.02944 3 3 7.02944 3 12C3 16.9706 7.02944 21 12 21Z" fill="unset"/>
<path fill-rule="evenodd" clip-rule="evenodd" d="M7.25 12C7.25 11.4477 7.69772 11 8.25 11H15.75C16.3023 11 16.75 11.4477 16.75 12C16.75 12.5523 16.3023 13 15.75 13H8.25C7.69772 13 7.25 12.5523 7.25 12Z" fill="#FBFBFB"/>
<path fill-rule="evenodd" clip-rule="evenodd" d="M12 7.25C12.5523 7.25 13 7.69772 13 8.25V15.75C13 16.3023 12.5523 16.75 12 16.75C11.4477 16.75 11 16.3023 11 15.75V8.25C11 7.69772 11.4477 7.25 12 7.25Z" fill="#FBFBFB"/>
</svg>
